<svg xmlns="http://www.w3.org/2000/svg" xmlns:xlink="http://www.w3.org/1999/xlink" width="500" zoomAndPan="magnify" viewBox="0 0 375 374.999991" height="500" preserveAspectRatio="xMidYMid meet" version="1.0"><defs><g/><clipPath id="689e05c92b"><rect x="0" width="169" y="0" height="323"/></clipPath><clipPath id="75bb15e9ca"><rect x="0" width="203" y="0" height="323"/></clipPath></defs><g transform="matrix(1, 0, 0, 1, 8, 26)"><g clip-path="url(#689e05c92b)"><g fill="#1e3a8a" fill-opacity="1"><g transform="translate(3.495686, 253.963682)"><g><path d="M 48.828125 -207.203125 L 48.828125 -22.53125 L 161.828125 -22.53125 L 161.828125 0 L 25.359375 0 L 25.359375 -207.203125 Z M 48.828125 -207.203125 "/></g></g></g></g></g><g transform="matrix(1, 0, 0, 1, 138, 26)"><g clip-path="url(#75bb15e9ca)"><g fill="#1e3a8a" fill-opacity="1"><g transform="translate(7.007301, 253.403747)"><g><path d="M 109.953125 -106.828125 L 192.421875 0 L 162.75 0 L 95.59375 -88.71875 L 28.734375 0 L -0.9375 0 L 81.53125 -106.828125 L 4.6875 -206.796875 L 34.359375 -206.796875 L 95.59375 -125.578125 L 157.125 -206.796875 L 186.796875 -206.796875 Z M 109.953125 -106.828125 "/></g></g></g></g></g></svg>