<svg xmlns="http://www.w3.org/2000/svg" xmlns:xlink="http://www.w3.org/1999/xlink" width="500" zoomAndPan="magnify" viewBox="0 0 375 187.499995" height="250" preserveAspectRatio="xMidYMid meet" version="1.0"><defs><g/><clipPath id="695074bae2"><path d="M 2 0 L 374.5 0 L 374.5 187 L 2 187 Z M 2 0 " clip-rule="nonzero"/></clipPath><clipPath id="75a60cd341"><rect x="0" width="373" y="0" height="187"/></clipPath></defs><g clip-path="url(#695074bae2)"><g transform="matrix(1, 0, 0, 1, 2, 0)"><g clip-path="url(#75a60cd341)"><g fill="#1e3a8a" fill-opacity="1"><g transform="translate(1.332937, 149.052975)"><g><path d="M 29.328125 -124.484375 L 29.328125 -13.546875 L 97.21875 -13.546875 L 97.21875 0 L 15.234375 0 L 15.234375 -124.484375 Z M 29.328125 -124.484375 "/></g></g></g><g fill="#1e3a8a" fill-opacity="1"><g transform="translate(92.141045, 149.052975)"><g><path d="M 12.21875 -94.03125 L 26.328125 -94.03125 L 26.328125 0 L 12.21875 0 Z M 26.890625 -128.25 L 26.890625 -109.8125 L 11.65625 -109.8125 L 11.65625 -128.25 Z M 26.890625 -128.25 "/></g></g></g><g fill="#1e3a8a" fill-opacity="1"><g transform="translate(121.280633, 149.052975)"><g><path d="M 67.515625 -68.828125 C 66.253906 -78.609375 58.382812 -83.5 43.90625 -83.5 C 29.425781 -83.5 22.1875 -78.984375 22.1875 -69.953125 C 22.1875 -66.191406 23.722656 -63.335938 26.796875 -61.390625 C 29.867188 -59.453125 33.722656 -57.851562 38.359375 -56.59375 C 42.992188 -55.34375 48.035156 -54.1875 53.484375 -53.125 C 58.941406 -52.0625 63.988281 -50.554688 68.625 -48.609375 C 73.269531 -46.671875 77.128906 -44.007812 80.203125 -40.625 C 83.273438 -37.238281 84.8125 -32.597656 84.8125 -26.703125 C 84.8125 -17.546875 81.363281 -10.554688 74.46875 -5.734375 C 67.570312 -0.910156 58.234375 1.5 46.453125 1.5 C 33.910156 1.5 23.941406 -1.628906 16.546875 -7.890625 C 9.773438 -13.410156 6.140625 -20.617188 5.640625 -29.515625 L 20.3125 -29.515625 C 21.1875 -20.867188 26.078125 -15.039062 34.984375 -12.03125 C 38.234375 -11.03125 41.457031 -10.53125 44.65625 -10.53125 C 47.851562 -10.53125 50.832031 -10.71875 53.59375 -11.09375 C 56.351562 -11.46875 59.046875 -12.15625 61.671875 -13.15625 C 67.691406 -15.539062 70.703125 -19.617188 70.703125 -25.390625 C 70.703125 -29.273438 69.164062 -32.25 66.09375 -34.3125 C 63.019531 -36.382812 59.164062 -38.078125 54.53125 -39.390625 C 49.894531 -40.710938 44.847656 -41.90625 39.390625 -42.96875 C 33.941406 -44.03125 28.894531 -45.5 24.25 -47.375 C 19.613281 -49.257812 15.757812 -51.832031 12.6875 -55.09375 C 9.625 -58.351562 8.09375 -62.867188 8.09375 -68.640625 C 8.09375 -77.160156 11.191406 -83.769531 17.390625 -88.46875 C 23.597656 -93.175781 32.78125 -95.53125 44.9375 -95.53125 C 56.476562 -95.53125 65.566406 -92.769531 72.203125 -87.25 C 77.722656 -82.613281 80.921875 -76.472656 81.796875 -68.828125 Z M 67.515625 -68.828125 "/></g></g></g><g fill="#1e3a8a" fill-opacity="1"><g transform="translate(202.500038, 149.052975)"><g><path d="M 22.375 0 L 22.375 -81.609375 L 3.203125 -81.609375 L 3.203125 -94.03125 L 22.375 -94.03125 L 22.375 -127.6875 L 36.484375 -127.6875 L 36.484375 -94.03125 L 58.109375 -94.03125 L 58.109375 -81.609375 L 36.484375 -81.609375 L 36.484375 0 Z M 22.375 0 "/></g></g></g><g fill="#1e3a8a" fill-opacity="1"><g transform="translate(254.389309, 149.052975)"><g><path d="M 66.1875 -64.3125 L 115.84375 0 L 97.96875 0 L 57.546875 -53.40625 L 17.296875 0 L -0.5625 0 L 49.078125 -64.3125 L 2.828125 -124.484375 L 20.6875 -124.484375 L 57.546875 -75.59375 L 94.59375 -124.484375 L 112.453125 -124.484375 Z M 66.1875 -64.3125 "/></g></g></g></g></g></g></svg>